<svg width="77" height="31" viewBox="0 0 77 31" fill="none" xmlns="http://www.w3.org/2000/svg">
<path d="M26.2609 24.2196C26.2609 24.2196 20.7424 20.8023 18.4082 18.5336C16.074 16.2649 12.3237 12.9978 13.5493 11.7036C14.8227 10.3588 17.4601 14.2518 19.9179 15.7348C22.0965 17.0494 31.0346 22.8641 31.0346 22.8641C30.0662 23.4419 26.2609 24.2196 26.2609 24.2196Z" fill="#C66F50"/>
<path d="M13.9379 13.8067C14.1186 14.0522 14.2927 13.7481 14.3464 13.5092C14.4007 13.2673 13.3972 11.9268 13.3972 11.9268C13.1587 12.4998 13.4158 13.0974 13.9379 13.8067Z" fill="#F4C9B5"/>
<path d="M21.6131 23.3564C21.6131 23.3564 15.5311 19.5872 12.927 17.2531C10.3228 14.919 6.42958 11.3742 7.6733 9.86683C8.96548 8.30068 11.9394 13.0642 14.4714 14.7008C16.7158 16.1515 26.3694 21.3718 26.3694 21.3718C25.3695 22.0716 21.6131 23.3564 21.6131 23.3564Z" fill="#D37B5E"/>
<path d="M8.33731 12.1228C8.54321 12.3476 8.837 11.5721 8.7503 11.4537C8.35842 10.9187 7.63274 9.91982 7.63274 9.91982C6.93276 10.7704 7.80399 11.5404 8.33731 12.1228Z" fill="#F4C9B5"/>
<path d="M18.7242 22.0793C18.7242 22.0793 12.5953 19.6434 9.83033 17.5186C7.06538 15.3937 1.11565 11.7238 2.41932 10.231C4.1535 8.24537 7.85028 12.2464 10.0573 13.8195C12.2643 15.3926 23.5476 20.1122 23.5476 20.1122C22.6181 20.9031 18.7242 22.0793 18.7242 22.0793Z" fill="#E6926D"/>
<path d="M3.6143 12.7717C3.83597 12.9872 4.11612 12.2521 4.15135 12.1076C4.26832 11.6277 2.41906 10.231 2.41906 10.231C1.64105 10.8464 3.04009 12.2134 3.6143 12.7717Z" fill="#F4C9B5"/>
<path d="M26.3651 5.24501C26.3651 8.14179 24.0168 10.49 21.1201 10.49C18.2233 10.49 15.875 8.14179 15.875 5.24501C15.875 2.34824 18.2233 0 21.1201 0C24.0168 0 26.3651 2.34824 26.3651 5.24501Z" fill="#EEB31B"/>
<path d="M25.298 5.24508C25.298 7.55266 23.4273 9.42333 21.1197 9.42333C18.8121 9.42333 16.9414 7.55266 16.9414 5.24508C16.9414 2.93745 18.8121 1.06683 21.1197 1.06683C23.4273 1.06683 25.298 2.93745 25.298 5.24508Z" fill="#FFC42E"/>
<path d="M76.6164 13.811C76.6164 13.811 38.2694 18.3025 37.6435 17.3682C36.4857 15.6397 32.8056 12.2885 30.9913 11.2868C29.1768 10.2852 22.0991 3.75023 20.7852 6.54501C19.9343 8.35518 24.9261 10.6656 27.5293 15.1146C28.6613 17.0493 25.69 18.4928 22.2178 18.6741C22.1433 20.8054 22.8432 23.2841 22.8239 25.4047C30.1323 27.5418 76.9821 28.2542 76.9821 28.2542L76.6164 13.811Z" fill="#F0AF8E"/>
<path d="M23.6875 25.5961C18.9827 25.4139 11.8048 21.7852 10.4825 21.2286C9.16034 20.6721 0.734708 15.8095 0.280636 14.5158C-0.173458 13.2223 1.49715 12.4113 3.18496 13.528C7.11847 16.1304 18.4091 19.2217 22.7479 18.6554L23.6875 25.5961Z" fill="#F0AF8E"/>
<path d="M2.88439 16.7422C3.15211 16.8923 3.3521 16.063 3.39499 15.6254C3.43786 15.1878 0.279117 13.6111 0.241136 13.8137C-0.00265249 15.1137 1.84844 16.161 2.88439 16.7422Z" fill="#F4C9B5"/>
<path d="M25.3285 7.25331C25.5715 7.44772 24.8538 7.63114 24.459 7.83796C24.0641 8.04483 21.2896 5.97312 21.4905 5.91605C23.0959 5.46008 24.3882 6.50115 25.3285 7.25331Z" fill="#F4C9B5"/>
</svg>
