<svg width="68" height="49" viewBox="0 0 68 49" fill="none" xmlns="http://www.w3.org/2000/svg">
<path d="M8.97959 23.695L8.42219 26.3342H0L3.18603 11.2612H11.6188L11.0614 13.8814H5.783L5.09259 17.1899H10.0099L9.44197 19.808H4.52463L3.7012 23.695H8.97959ZM15.0812 26.5411C14.072 26.5411 13.2767 26.173 12.6954 25.4368C12.1141 24.7021 11.8234 23.671 11.8234 22.3437C11.8234 20.9967 12.0697 19.7101 12.5624 18.4841C13.0536 17.2567 13.7011 16.301 14.5048 15.6169C15.3086 14.9328 16.1953 14.5908 17.1651 14.5908C17.7282 14.5908 18.2145 14.7182 18.6241 14.973C19.0323 15.2277 19.4187 15.6641 19.7832 16.282H19.8656L19.8867 15.9949C19.9275 15.2376 20.0134 14.5669 20.1443 13.9827L20.9276 10.2921H24.0313L20.6278 26.3342H18.2673L18.4129 24.8393H18.3707C17.8823 25.4375 17.3721 25.8704 16.84 26.1378C16.3079 26.4066 15.7217 26.5411 15.0812 26.5411ZM16.3818 24.0349C16.8351 24.0349 17.2763 23.7998 17.7056 23.3297C18.135 22.8582 18.4805 22.2311 18.7423 21.4485C19.0027 20.6645 19.1329 19.822 19.1329 18.9212C19.1329 18.3722 19.0041 17.9324 18.7465 17.6016C18.489 17.2722 18.1371 17.1075 17.6909 17.1075C17.2236 17.1075 16.7781 17.3546 16.3544 17.8486C15.9321 18.3441 15.5957 18.9972 15.3452 19.808C15.0946 20.6187 14.9693 21.4231 14.9693 22.2212C14.9693 23.4303 15.4402 24.0349 16.3818 24.0349ZM24.8344 21.0347L26.1434 14.8083H29.2471L27.8346 21.5393C27.7248 22.008 27.6699 22.4176 27.6699 22.7681C27.6699 23.6126 28.0408 24.0349 28.7826 24.0349C29.416 24.0349 29.9903 23.6429 30.5055 22.8589C31.0206 22.0763 31.426 20.984 31.7216 19.582L32.7308 14.8083H35.8345L33.3917 26.3342H31.0206L31.236 24.1996H31.1748C30.1782 25.7606 28.9586 26.5411 27.5158 26.5411C26.5671 26.5411 25.8415 26.2574 25.339 25.6902C24.8379 25.1229 24.5874 24.303 24.5874 23.2305C24.5874 22.5914 24.6697 21.8595 24.8344 21.0347ZM41.4128 26.5411C40.0306 26.5411 38.97 26.1716 38.231 25.4326C37.492 24.6936 37.1225 23.6506 37.1225 22.3036C37.1225 20.8467 37.3787 19.5215 37.8911 18.3279C38.4034 17.1357 39.1234 16.2151 40.051 15.5662C40.9786 14.916 42.0371 14.5908 43.2265 14.5908C44.4778 14.5908 45.6053 14.8385 46.6089 15.334L45.6587 17.6945C45.2886 17.5368 44.9247 17.3996 44.5672 17.2828C44.2097 17.166 43.8043 17.1075 43.351 17.1075C42.7669 17.1075 42.2391 17.3271 41.7675 17.7663C41.2974 18.2068 40.93 18.81 40.6654 19.5757C40.4008 20.3428 40.2685 21.1663 40.2685 22.046C40.2685 22.7047 40.4247 23.2009 40.7372 23.5345C41.0497 23.8681 41.4846 24.0349 42.042 24.0349C42.5642 24.0349 43.0484 23.954 43.4946 23.7921C43.9408 23.6316 44.4011 23.431 44.8754 23.1904V25.7261C43.831 26.2694 42.6768 26.5411 41.4128 26.5411ZM50.5763 26.5411C49.5671 26.5411 48.7718 26.1751 48.1905 25.4432C47.6091 24.7112 47.3185 23.6851 47.3185 22.3648C47.3185 21.0037 47.5662 19.7066 48.0617 18.4736C48.5571 17.2391 49.2067 16.2834 50.0105 15.6064C50.8142 14.9293 51.6974 14.5908 52.6602 14.5908C53.326 14.5908 53.9017 14.7358 54.3873 15.0257C54.8715 15.3143 55.2473 15.733 55.5148 16.282H55.5971L56.1862 14.8083H58.5762L56.1228 26.3342H53.7623L53.908 24.8393H53.8658C52.9452 25.9738 51.8487 26.5411 50.5763 26.5411ZM51.7946 24.0349C52.2689 24.0349 52.7257 23.8048 53.1648 23.3445C53.6054 22.8842 53.9594 22.2607 54.2268 21.4738C54.4943 20.687 54.628 19.7953 54.628 18.7987C54.628 18.3103 54.4957 17.9063 54.2311 17.5868C53.9664 17.2673 53.6181 17.1075 53.1859 17.1075C52.7186 17.1075 52.2731 17.3546 51.8494 17.8486C51.4272 18.3441 51.0908 18.9972 50.8402 19.808C50.5897 20.6187 50.4644 21.4231 50.4644 22.2212C50.4644 22.8251 50.5791 23.2783 50.8085 23.5809C51.0394 23.8836 51.3681 24.0349 51.7946 24.0349ZM64.2376 24.0349C64.6838 24.0349 65.2405 23.9145 65.9076 23.6739V25.9942C65.1447 26.3588 64.2305 26.5411 63.165 26.5411C62.1347 26.5411 61.3767 26.3243 60.8911 25.8908C60.4069 25.4572 60.1648 24.7872 60.1648 23.8808C60.1648 23.5373 60.2063 23.1523 60.2893 22.7259L61.4738 17.1688H59.9072L60.207 15.6528L62.2276 14.7872L63.5873 12.3549H65.5867L65.0821 14.8083H68L67.4848 17.1688H64.5775L63.3909 22.7259C63.3501 22.9314 63.3297 23.1136 63.3297 23.2727C63.3297 23.7808 63.6323 24.0349 64.2376 24.0349Z" fill="#CC7F00"/>
<path d="M29.0478 48.3501L29.3099 33.3789L39.8645 33.5637L39.6025 48.5348L34.4319 42.3469L29.0478 48.3501Z" fill="#CC7F00"/>
<path d="M19.4266 0H49.6156V3.27792H19.4266V0Z" fill="#CC7F00"/>
</svg>
