<svg width="69" height="49" viewBox="0 0 69 49" fill="none" xmlns="http://www.w3.org/2000/svg">
<path d="M9.72959 23.695L9.17219 26.3342H0.75L3.93603 11.2612H12.3688L11.8114 13.8814H6.533L5.84259 17.1899H10.7599L10.192 19.808H5.27463L4.4512 23.695H9.72959ZM15.8312 26.5411C14.822 26.5411 14.0267 26.173 13.4454 25.4368C12.8641 24.7021 12.5734 23.671 12.5734 22.3437C12.5734 20.9967 12.8197 19.7101 13.3124 18.4841C13.8036 17.2567 14.4511 16.301 15.2548 15.6169C16.0586 14.9328 16.9453 14.5908 17.9151 14.5908C18.4782 14.5908 18.9645 14.7182 19.3741 14.973C19.7823 15.2277 20.1687 15.6641 20.5332 16.282H20.6156L20.6367 15.9949C20.6775 15.2376 20.7634 14.5669 20.8943 13.9827L21.6776 10.2921H24.7813L21.3778 26.3342H19.0173L19.1629 24.8393H19.1207C18.6323 25.4375 18.1221 25.8704 17.59 26.1378C17.0579 26.4066 16.4717 26.5411 15.8312 26.5411ZM17.1318 24.0349C17.5851 24.0349 18.0263 23.7998 18.4556 23.3297C18.885 22.8582 19.2305 22.2311 19.4923 21.4485C19.7527 20.6645 19.8829 19.822 19.8829 18.9212C19.8829 18.3722 19.7541 17.9324 19.4965 17.6016C19.239 17.2722 18.8871 17.1075 18.4409 17.1075C17.9736 17.1075 17.5281 17.3546 17.1044 17.8486C16.6821 18.3441 16.3457 18.9972 16.0952 19.808C15.8446 20.6187 15.7193 21.4231 15.7193 22.2212C15.7193 23.4303 16.1902 24.0349 17.1318 24.0349ZM25.5844 21.0347L26.8934 14.8083H29.9971L28.5846 21.5393C28.4748 22.008 28.4199 22.4176 28.4199 22.7681C28.4199 23.6126 28.7908 24.0349 29.5326 24.0349C30.166 24.0349 30.7403 23.6429 31.2555 22.8589C31.7706 22.0763 32.176 20.984 32.4716 19.582L33.4808 14.8083H36.5845L34.1417 26.3342H31.7706L31.986 24.1996H31.9248C30.9282 25.7606 29.7086 26.5411 28.2658 26.5411C27.3171 26.5411 26.5915 26.2574 26.089 25.6902C25.5879 25.1229 25.3374 24.303 25.3374 23.2305C25.3374 22.5914 25.4197 21.8595 25.5844 21.0347ZM42.1628 26.5411C40.7806 26.5411 39.72 26.1716 38.981 25.4326C38.242 24.6936 37.8725 23.6506 37.8725 22.3036C37.8725 20.8467 38.1287 19.5215 38.6411 18.3279C39.1534 17.1357 39.8734 16.2151 40.801 15.5662C41.7286 14.916 42.7871 14.5908 43.9765 14.5908C45.2278 14.5908 46.3553 14.8385 47.3589 15.334L46.4087 17.6945C46.0386 17.5368 45.6747 17.3996 45.3172 17.2828C44.9597 17.166 44.5543 17.1075 44.101 17.1075C43.5169 17.1075 42.9891 17.3271 42.5175 17.7663C42.0474 18.2068 41.68 18.81 41.4154 19.5757C41.1508 20.3428 41.0185 21.1663 41.0185 22.046C41.0185 22.7047 41.1747 23.2009 41.4872 23.5345C41.7997 23.8681 42.2346 24.0349 42.792 24.0349C43.3142 24.0349 43.7984 23.954 44.2446 23.7921C44.6908 23.6316 45.1511 23.431 45.6254 23.1904V25.7261C44.581 26.2694 43.4268 26.5411 42.1628 26.5411ZM51.3263 26.5411C50.3171 26.5411 49.5218 26.1751 48.9405 25.4432C48.3591 24.7112 48.0685 23.6851 48.0685 22.3648C48.0685 21.0037 48.3162 19.7066 48.8117 18.4736C49.3071 17.2391 49.9567 16.2834 50.7605 15.6064C51.5642 14.9293 52.4474 14.5908 53.4102 14.5908C54.076 14.5908 54.6517 14.7358 55.1373 15.0257C55.6215 15.3143 55.9973 15.733 56.2648 16.282H56.3471L56.9362 14.8083H59.3262L56.8728 26.3342H54.5123L54.658 24.8393H54.6158C53.6952 25.9738 52.5987 26.5411 51.3263 26.5411ZM52.5446 24.0349C53.0189 24.0349 53.4757 23.8048 53.9148 23.3445C54.3554 22.8842 54.7094 22.2607 54.9768 21.4738C55.2443 20.687 55.378 19.7953 55.378 18.7987C55.378 18.3103 55.2457 17.9063 54.9811 17.5868C54.7164 17.2673 54.3681 17.1075 53.9359 17.1075C53.4686 17.1075 53.0231 17.3546 52.5994 17.8486C52.1772 18.3441 51.8408 18.9972 51.5902 19.808C51.3397 20.6187 51.2144 21.4231 51.2144 22.2212C51.2144 22.8251 51.3291 23.2783 51.5585 23.5809C51.7894 23.8836 52.1181 24.0349 52.5446 24.0349ZM64.9876 24.0349C65.4338 24.0349 65.9905 23.9145 66.6576 23.6739V25.9942C65.8947 26.3588 64.9805 26.5411 63.915 26.5411C62.8847 26.5411 62.1267 26.3243 61.6411 25.8908C61.1569 25.4572 60.9148 24.7872 60.9148 23.8808C60.9148 23.5373 60.9563 23.1523 61.0393 22.7259L62.2238 17.1688H60.6572L60.957 15.6528L62.9776 14.7872L64.3373 12.3549H66.3367L65.8321 14.8083H68.75L68.2348 17.1688H65.3275L64.1409 22.7259C64.1001 22.9314 64.0797 23.1136 64.0797 23.2727C64.0797 23.7808 64.3823 24.0349 64.9876 24.0349Z" fill="white"/>
<path d="M29.7978 48.3501L30.0599 33.3789L40.6145 33.5637L40.3525 48.5348L35.1819 42.3469L29.7978 48.3501Z" fill="white"/>
<path d="M20.1766 0H50.3656V3.27792H20.1766V0Z" fill="white"/>
</svg>
