<svg width="69" height="50" viewBox="0 0 69 50" fill="none" xmlns="http://www.w3.org/2000/svg">
<path d="M9.72959 24.4275L9.17219 27.0667H0.75L3.93603 11.9937H12.3688L11.8114 14.6139H6.533L5.84259 17.9224H10.7599L10.192 20.5405H5.27463L4.4512 24.4275H9.72959ZM15.8312 27.2736C14.822 27.2736 14.0267 26.9055 13.4454 26.1694C12.8641 25.4346 12.5734 24.4036 12.5734 23.0762C12.5734 21.7292 12.8197 20.4427 13.3124 19.2167C13.8036 17.9893 14.4511 17.0335 15.2548 16.3495C16.0586 15.6654 16.9453 15.3233 17.9151 15.3233C18.4782 15.3233 18.9645 15.4507 19.3741 15.7055C19.7823 15.9603 20.1687 16.3966 20.5332 17.0145H20.6156L20.6367 16.7274C20.6775 15.9701 20.7634 15.2994 20.8943 14.7153L21.6776 11.0246H24.7813L21.3778 27.0667H19.0173L19.1629 25.5719H19.1207C18.6323 26.1701 18.1221 26.6029 17.59 26.8703C17.0579 27.1392 16.4717 27.2736 15.8312 27.2736ZM17.1318 24.7674C17.5851 24.7674 18.0263 24.5324 18.4556 24.0622C18.885 23.5907 19.2305 22.9636 19.4923 22.181C19.7527 21.397 19.8829 20.5546 19.8829 19.6537C19.8829 19.1048 19.7541 18.6649 19.4965 18.3341C19.239 18.0048 18.8871 17.8401 18.4409 17.8401C17.9736 17.8401 17.5281 18.0871 17.1044 18.5812C16.6821 19.0766 16.3457 19.7297 16.0952 20.5405C15.8446 21.3513 15.7193 22.1557 15.7193 22.9538C15.7193 24.1629 16.1902 24.7674 17.1318 24.7674ZM25.5844 21.7672L26.8934 15.5408H29.9971L28.5846 22.2718C28.4748 22.7405 28.4199 23.1501 28.4199 23.5006C28.4199 24.3452 28.7908 24.7674 29.5326 24.7674C30.166 24.7674 30.7403 24.3754 31.2555 23.5914C31.7706 22.8088 32.176 21.7165 32.4716 20.3146L33.4808 15.5408H36.5845L34.1417 27.0667H31.7706L31.986 24.9321H31.9248C30.9282 26.4931 29.7086 27.2736 28.2658 27.2736C27.3171 27.2736 26.5915 26.99 26.089 26.4227C25.5879 25.8555 25.3374 25.0356 25.3374 23.963C25.3374 23.324 25.4197 22.592 25.5844 21.7672ZM42.1628 27.2736C40.7806 27.2736 39.72 26.9041 38.981 26.1652C38.242 25.4262 37.8725 24.3832 37.8725 23.0361C37.8725 21.5793 38.1287 20.2541 38.6411 19.0604C39.1534 17.8682 39.8734 16.9477 40.801 16.2988C41.7286 15.6485 42.7871 15.3233 43.9765 15.3233C45.2278 15.3233 46.3553 15.5711 47.3589 16.0665L46.4087 18.427C46.0386 18.2694 45.6747 18.1322 45.3172 18.0153C44.9597 17.8985 44.5543 17.8401 44.101 17.8401C43.5169 17.8401 42.9891 18.0597 42.5175 18.4988C42.0474 18.9394 41.68 19.5425 41.4154 20.3083C41.1508 21.0754 41.0185 21.8988 41.0185 22.7785C41.0185 23.4373 41.1747 23.9335 41.4872 24.267C41.7997 24.6006 42.2346 24.7674 42.792 24.7674C43.3142 24.7674 43.7984 24.6865 44.2446 24.5246C44.6908 24.3642 45.1511 24.1636 45.6254 23.9229V26.4586C44.581 27.002 43.4268 27.2736 42.1628 27.2736ZM51.3263 27.2736C50.3171 27.2736 49.5218 26.9076 48.9405 26.1757C48.3591 25.4438 48.0685 24.4177 48.0685 23.0974C48.0685 21.7362 48.3162 20.4392 48.8117 19.2061C49.3071 17.9717 49.9567 17.0159 50.7605 16.3389C51.5642 15.6619 52.4474 15.3233 53.4102 15.3233C54.076 15.3233 54.6517 15.4683 55.1373 15.7583C55.6215 16.0468 55.9973 16.4656 56.2648 17.0145H56.3471L56.9362 15.5408H59.3262L56.8728 27.0667H54.5123L54.658 25.5719H54.6158C53.6952 26.7064 52.5987 27.2736 51.3263 27.2736ZM52.5446 24.7674C53.0189 24.7674 53.4757 24.5373 53.9148 24.077C54.3554 23.6167 54.7094 22.9932 54.9768 22.2064C55.2443 21.4195 55.378 20.5278 55.378 19.5313C55.378 19.0429 55.2457 18.6389 54.9811 18.3194C54.7164 17.9998 54.3681 17.8401 53.9359 17.8401C53.4686 17.8401 53.0231 18.0871 52.5994 18.5812C52.1772 19.0766 51.8408 19.7297 51.5902 20.5405C51.3397 21.3513 51.2144 22.1557 51.2144 22.9538C51.2144 23.5576 51.3291 24.0109 51.5585 24.3135C51.7894 24.6161 52.1181 24.7674 52.5446 24.7674ZM64.9876 24.7674C65.4338 24.7674 65.9905 24.6471 66.6576 24.4064V26.7268C65.8947 27.0913 64.9805 27.2736 63.915 27.2736C62.8847 27.2736 62.1267 27.0568 61.6411 26.6233C61.1569 26.1898 60.9148 25.5198 60.9148 24.6133C60.9148 24.2699 60.9563 23.8849 61.0393 23.4584L62.2238 17.9013H60.6572L60.957 16.3854L62.9776 15.5197L64.3373 13.0874H66.3367L65.8321 15.5408H68.75L68.2348 17.9013H65.3275L64.1409 23.4584C64.1001 23.6639 64.0797 23.8462 64.0797 24.0052C64.0797 24.5134 64.3823 24.7674 64.9876 24.7674Z" fill="#021559"/>
<path d="M29.7978 49.0826L30.0599 34.1115L40.6145 34.2962L40.3525 49.2673L35.1819 43.0794L29.7978 49.0826Z" fill="#021559"/>
<path d="M20.1766 0.732544H50.3656V4.01046H20.1766V0.732544Z" fill="#021559"/>
</svg>
